<?xml version="1.0" encoding="UTF-8"?>
<svg id="Layer_2" data-name="Layer 2" xmlns="http://www.w3.org/2000/svg" viewBox="0 0 308.08 220.39">
  <defs>
    <style>
      .cls-1 {
        fill: #461c53;
      }

      .cls-1, .cls-2 {
        stroke-width: 0px;
      }

      .cls-2 {
        fill: #fff;
      }
    </style>
  </defs>
  <g id="Valley_Metro" data-name="Valley Metro">
    <polygon class="cls-1" points="308.08 0 248.27 123.88 238.33 144.45 201.67 220.39 110.41 220.39 61.22 122.21 58.27 116.32 0 0 134.1 0 175.89 78.17 217.87 0 308.08 0"/>
    <g>
      <path class="cls-2" d="M122.94,105.37l-12.55,19.12-.1-19.12h-17.57l-12.68,40.31h9.15s7.88-24.49,8.89-27.88c.02-.07.12-.05.12.02l.61,27.86h7l18.39-28.59s.12-.02.1.04c-.99,3.33-8.96,28.55-8.96,28.55h11.6l12.86-40.31h-16.86Z"/>
      <path class="cls-2" d="M165.9,121.78c-.93-1.93-2.37-3.35-4.32-4.24-1.94-.9-4.26-1.34-6.94-1.34-4.53,0-8.53,1.33-12,3.97-3.47,2.65-5.79,6.46-6.97,11.44-1.27,5.3-.62,9.13,1.97,11.48,2.57,2.35,5.92,3.53,10.03,3.53,4.98,0,9.19-1.4,12.63-4.19,2.19-1.75,3.6-3.48,4.24-5.19h-8.63c-.67.84-1.35,1.51-2.05,1.98-1.3.87-2.82,1.32-4.56,1.32-1.64,0-2.96-.37-3.94-1.09-1.64-1.15-2.17-3.18-1.6-6.05h22.11c.63-2.48.98-4.37,1.06-5.69.18-2.25-.16-4.22-1.03-5.93ZM158.28,128.44h-13.13c.71-1.86,1.74-3.33,3.06-4.42,1.34-1.09,2.99-1.64,4.94-1.64,1.8,0,3.19.52,4.17,1.55.98,1.02,1.3,2.53.96,4.51Z"/>
      <path class="cls-2" d="M184.56,120.12h5.8l1.4-5.91h-5.8l2.13-8.84h-9.22l-2.14,8.84h-4.97l-1.41,5.91h4.97l-4.67,19.52c-.47,1.97-.29,3.44.52,4.38,1.27,1.5,4.11,2.18,8.54,2.05l4.45-.15,1.51-6.19c-.33,0-.65.03-.96.04s-.63.01-.9.01c-1.9,0-3-.15-3.29-.48-.3-.32-.29-1.13.01-2.43l4.03-16.75Z"/>
      <path class="cls-2" d="M214.98,116.44h-.42c-2.51,0-4.7.58-6.57,1.75-1.12.7-2.56,2-4.31,3.91l1.18-4.98h-8.02l-6.81,28.56h8.47l3.24-13.65c.55-2.29,1.28-3.99,2.18-5.09,1.63-1.95,4.14-2.93,7.52-2.93.25,0,.59.01,1,.02.41.02.88.06,1.39.11l1.82-7.65c-.35-.02-.58-.04-.67-.05Z"/>
      <path class="cls-2" d="M246.8,120.73c-1.99-3.02-5.74-4.53-11.26-4.53s-10.01,1.51-13.45,4.53c-3.44,3.03-5.65,6.6-6.63,10.72-1,4.19-.51,7.78,1.49,10.75,1.99,2.98,5.75,4.47,11.28,4.47,3.89,0,7.25-.74,10.1-2.22l9.94-20.57c-.33-1.11-.82-2.16-1.47-3.15ZM239.49,131.45c-1.3,3.73-4.06,8.4-9.67,8.4-7.11,0-6.33-5.54-5.63-8.4.79-3.23,4.27-8.35,9.69-8.17,5.22.18,6.65,5.19,5.61,8.17Z"/>
    </g>
  </g>
</svg>